# xmcd
#
# Track frame offsets:
#	150
#	25297
#	44411
#	56895
#	81371
#	105805
#	128791
#	147003
#	166811
#	181712
#
# Disc length: 2711 seconds
# Revision: 0
# Processed by: cddbd v1.5.2PL0 Copyright (c) Steve Scherf et al.
# Submitted via: dBpowerAMP V12.0
#
DISCID=7a0a950a
DTITLE=Connie Hawkins and the BluesWreckers - Wired Up And Fired Up
DYEAR=2013
DGENRE=Blues
TTITLE0=Narrow Road
TTITLE1=Mad At You Baby
TTITLE2=Too Cool For The Room
TTITLE3=Bad Intentions
TTITLE4=Blues In My Life
TTITLE5=Short Loving Man
TTITLE6=Not Trustworthy
TTITLE7=Don't Miss The Water
TTITLE8=Some Things Have Got To Change
TTITLE9=Who's Loving You
EXTD=
EXTT0=
EXTT1=
EXTT2=
EXTT3=
EXTT4=
EXTT5=
EXTT6=
EXTT7=
EXTT8=
EXTT9=
PLAYORDER=
